<svg class="animated" id="freepik_stories-vowels" xmlns="http://www.w3.org/2000/svg" viewBox="0 0 500 500" version="1.1" xmlns:xlink="http://www.w3.org/1999/xlink" xmlns:svgjs="http://svgjs.com/svgjs"><style>
svg#freepik_stories-vowels:not(.animated) .animable 
		{opacity: 0;}
svg#freepik_stories-vowels.animated #freepik--background-complete--inject-1 
		{animation: 4.2s 1 forwards cubic-bezier(.36,-0.01,.5,1.38) fadeIn;animation-delay: 1.5s;opacity: 0}
svg#freepik_stories-vowels.animated #freepik--Shadow--inject-1 
		{animation: 7s infinite forwards cubic-bezier(.36,-0.01,.5,1.38) slideDown;animation-delay: 0s;}
svg#freepik_stories-vowels.animated #freepik--Plant--inject-1 
		{animation: 0 infinite forwards cubic-bezier(.36,-0.01,.5,1.38) slideUp;animation-delay: 0s;}
svg#freepik_stories-vowels.animated #freepik--Cat--inject-1 
		{animation: 5s 1 forwards cubic-bezier(.36,-0.01,.5,1.38) zoomIn;animation-delay: 0s;}
svg#freepik_stories-vowels.animated #freepik--vowel-u--inject-1 
		{animation: 5s infinite forwards cubic-bezier(.36,-0.01,.5,1.38) slideLeft;animation-delay: 0s;}
svg#freepik_stories-vowels.animated #freepik--vowel-o--inject-1 
		{animation: 6s infinite forwards cubic-bezier(.36,-0.01,.5,1.38) zoomIn;animation-delay: 0s;}
svg#freepik_stories-vowels.animated #freepik--vowel-i--inject-1 
		{animation: 7s infinite forwards cubic-bezier(.36,-0.01,.5,1.38) lightSpeedLeft;animation-delay: 0.4s;opacity: 0}
svg#freepik_stories-vowels.animated #freepik--vowel-e--inject-1 
		{animation: 2.8s infinite forwards cubic-bezier(.36,-0.01,.5,1.38) slideLeft;animation-delay: 0s;}
svg#freepik_stories-vowels.animated #freepik--vowel-a--inject-1 
		{animation: 8s infinite forwards cubic-bezier(.36,-0.01,.5,1.38) lightSpeedLeft;animation-delay: 0s;}
svg#freepik_stories-vowels.animated #freepik--Character--inject-1 
		{animation: 3s 1 forwards cubic-bezier(.36,-0.01,.5,1.38) zoomIn;animation-delay: 1.6s;opacity: 0}            @keyframes fadeIn {                0% {                    opacity: 0;                }                100% {                    opacity: 1;                }            }                    @keyframes slideDown {                0% {                    opacity: 0;                    transform: translateY(-30px);                }                100% {                    opacity: 1;                    transform: translateY(0);                }            }                    @keyframes slideUp {                0% {                    opacity: 0;                    transform: translateY(30px);                }                100% {                    opacity: 1;                    transform: inherit;                }            }                    @keyframes zoomIn {                0% {                    opacity: 0;                    transform: scale(0.5);                }                100% {                    opacity: 1;                    transform: scale(1);                }            }                    @keyframes slideLeft {                0% {                    opacity: 0;                    transform: translateX(-30px);                }                100% {                    opacity: 1;                    transform: translateX(0);                }            }                    @keyframes lightSpeedLeft {              from {                transform: translate3d(-50%, 0, 0) skewX(20deg);                opacity: 0;              }              60% {                transform: skewX(-10deg);                opacity: 1;              }              80% {                transform: skewX(2deg);              }              to {                opacity: 1;                transform: translate3d(0, 0, 0);              }            }
    </style>
	<g id="freepik--background-complete--inject-1" style="transform-origin: 250px 228.23px 0px;" class="animable"><rect y="382.4" width="500" height="0.25" style="fill: rgb(235, 235, 235); transform-origin: 250px 382.525px 0px;" id="elxksptpoyv4" class="animable"></rect><rect x="416.78" y="398.49" width="33.12" height="0.25" style="fill: rgb(235, 235, 235); transform-origin: 433.34px 398.615px 0px;" id="elcibci3r6iz7" class="animable"></rect><rect x="322.53" y="401.21" width="8.69" height="0.25" style="fill: rgb(235, 235, 235); transform-origin: 326.875px 401.335px 0px;" id="elychxprxio1e" class="animable"></rect><rect x="396.59" y="389.21" width="19.19" height="0.25" style="fill: rgb(235, 235, 235); transform-origin: 406.185px 389.335px 0px;" id="el6kr9z1sye3l" class="animable"></rect><rect x="52.46" y="390.89" width="43.19" height="0.25" style="fill: rgb(235, 235, 235); transform-origin: 74.055px 391.015px 0px;" id="elqm0g68o5wzh" class="animable"></rect><rect x="104.56" y="390.89" width="6.33" height="0.25" style="fill: rgb(235, 235, 235); transform-origin: 107.725px 391.015px 0px;" id="el1p5yipfyoa6" class="animable"></rect><rect x="131.47" y="395.11" width="93.68" height="0.25" style="fill: rgb(235, 235, 235); transform-origin: 178.31px 395.235px 0px;" id="el3djxaoil8o4" class="animable"></rect><path d="M237,337.8H43.91a5.71,5.71,0,0,1-5.7-5.71V60.66A5.71,5.71,0,0,1,43.91,55H237a5.71,5.71,0,0,1,5.71,5.71V332.09A5.71,5.71,0,0,1,237,337.8ZM43.91,55.2a5.46,5.46,0,0,0-5.45,5.46V332.09a5.46,5.46,0,0,0,5.45,5.46H237a5.47,5.47,0,0,0,5.46-5.46V60.66A5.47,5.47,0,0,0,237,55.2Z" style="fill: rgb(235, 235, 235); transform-origin: 140.46px 196.4px 0px;" id="el8dz42i6q6t5" class="animable"></path><path d="M453.31,337.8H260.21a5.72,5.72,0,0,1-5.71-5.71V60.66A5.72,5.72,0,0,1,260.21,55h193.1A5.71,5.71,0,0,1,459,60.66V332.09A5.71,5.71,0,0,1,453.31,337.8ZM260.21,55.2a5.47,5.47,0,0,0-5.46,5.46V332.09a5.47,5.47,0,0,0,5.46,5.46h193.1a5.47,5.47,0,0,0,5.46-5.46V60.66a5.47,5.47,0,0,0-5.46-5.46Z" style="fill: rgb(235, 235, 235); transform-origin: 356.75px 196.4px 0px;" id="elhm9a8lz2179" class="animable"></path><rect x="414.5" y="115" width="5.24" height="110.17" style="fill: rgb(224, 224, 224); transform-origin: 417.12px 170.085px 0px;" id="elxuv2oknto9q" class="animable"></rect><g id="eltonrob8ndrr"><rect x="317.1" y="115" width="99.62" height="110.17" style="fill: rgb(224, 224, 224); transform-origin: 366.91px 170.085px 0px; transform: rotate(180deg);" class="animable" id="elfv9z35qx9xp"></rect></g><g id="elk6b37m2gqsh"><rect x="313.92" y="115" width="103.32" height="110.17" style="fill: rgb(240, 240, 240); transform-origin: 365.58px 170.085px 0px; transform: rotate(180deg);" class="animable" id="el5h38opreohr"></rect></g><g id="elojrylvp3bb"><rect x="318.29" y="118.51" width="94.74" height="101.6" style="fill: rgb(255, 255, 255); transform-origin: 365.66px 169.31px 0px; transform: rotate(180deg);" class="animable" id="el85etejwk7r7"></rect></g><g id="elvxd6n4xk2"><rect x="318.29" y="118.51" width="2.74" height="101.6" style="fill: rgb(224, 224, 224); transform-origin: 319.66px 169.31px 0px; transform: rotate(180deg);" class="animable" id="el44cfynotybo"></rect></g><g id="elwdd4625pnx"><rect x="365.63" y="146.67" width="2.74" height="92.54" style="fill: rgb(224, 224, 224); transform-origin: 367px 192.94px 0px; transform: rotate(-90deg);" class="animable" id="elioojbc9qrrk"></rect></g><g id="elwsoglfu7zkt"><rect x="318.29" y="186.97" width="96.21" height="4.6" style="fill: rgb(240, 240, 240); transform-origin: 366.395px 189.27px 0px; transform: rotate(180deg);" class="animable" id="elr7yrdh6uvi"></rect></g><rect x="64.86" y="184.35" width="156.54" height="198.22" style="fill: rgb(240, 240, 240); transform-origin: 143.13px 283.46px 0px;" id="elmkd4wn77tdh" class="animable"></rect><rect x="70.39" y="191.57" width="145.47" height="42.39" style="fill: rgb(224, 224, 224); transform-origin: 143.125px 212.765px 0px;" id="elwcjsnqslsqj" class="animable"></rect><rect x="70.39" y="198.44" width="8.26" height="35.52" style="fill: rgb(235, 235, 235); transform-origin: 74.52px 216.2px 0px;" id="el0te5hdnvpzt" class="animable"></rect><rect x="110.35" y="198.44" width="8.26" height="35.52" style="fill: rgb(235, 235, 235); transform-origin: 114.48px 216.2px 0px;" id="el5doeydqzd9i" class="animable"></rect><g id="elh8jfs63i6ua"><rect x="158.79" y="197.99" width="8.26" height="35.52" style="fill: rgb(235, 235, 235); transform-origin: 162.92px 215.75px 0px; transform: rotate(-9.78deg);" class="animable" id="elk26n9lzxkk"></rect></g><rect x="80.63" y="203.12" width="8.26" height="30.84" style="fill: rgb(235, 235, 235); transform-origin: 84.76px 218.54px 0px;" id="el3axk52ylvu7" class="animable"></rect><rect x="99.62" y="203.12" width="8.26" height="30.84" style="fill: rgb(235, 235, 235); transform-origin: 103.75px 218.54px 0px;" id="elwegt9xy5u4" class="animable"></rect><rect x="147.57" y="203.12" width="8.26" height="30.84" style="fill: rgb(235, 235, 235); transform-origin: 151.7px 218.54px 0px;" id="elco7vw58p3gt" class="animable"></rect><g id="elo5idtq35h39"><rect x="124.65" y="202.59" width="8.26" height="30.84" style="fill: rgb(235, 235, 235); transform-origin: 128.78px 218.01px 0px; transform: rotate(-12.53deg);" class="animable" id="el0p78qatu4wq"></rect></g><rect x="91.91" y="196.67" width="4.13" height="37.29" style="fill: rgb(235, 235, 235); transform-origin: 93.975px 215.315px 0px;" id="elg2wlljzd12w" class="animable"></rect><rect x="141.06" y="196.67" width="4.13" height="37.29" style="fill: rgb(235, 235, 235); transform-origin: 143.125px 215.315px 0px;" id="elyxglxv0wzym" class="animable"></rect><g id="elgzmdlj3ldal"><rect x="70.39" y="240.67" width="145.47" height="42.39" style="fill: rgb(224, 224, 224); transform-origin: 143.125px 261.865px 0px; transform: rotate(180deg);" class="animable" id="elalnxovs2tac"></rect></g><g id="elvt6izeb4dns"><rect x="207.6" y="247.54" width="8.26" height="35.52" style="fill: rgb(235, 235, 235); transform-origin: 211.73px 265.3px 0px; transform: rotate(180deg);" class="animable" id="elquxb7z7jbkj"></rect></g><g id="elafbfnvso2m"><rect x="167.64" y="247.54" width="8.26" height="35.52" style="fill: rgb(235, 235, 235); transform-origin: 171.77px 265.3px 0px; transform: rotate(180deg);" class="animable" id="elgd38t9j4ov8"></rect></g><g id="elktw5g71qgha"><rect x="119.2" y="247.09" width="8.26" height="35.52" style="fill: rgb(235, 235, 235); transform-origin: 123.33px 264.85px 0px; transform: rotate(-170.256deg);" class="animable" id="elje8td0g7too"></rect></g><g id="el1rshxm21fllj"><rect x="197.36" y="252.22" width="8.26" height="30.84" style="fill: rgb(235, 235, 235); transform-origin: 201.49px 267.64px 0px; transform: rotate(180deg);" class="animable" id="elgoiudmx03o7"></rect></g><g id="elrktrsc2yzgf"><rect x="178.36" y="252.22" width="8.26" height="30.84" style="fill: rgb(235, 235, 235); transform-origin: 182.49px 267.64px 0px; transform: rotate(180deg);" class="animable" id="elgj7boag4pzh"></rect></g><g id="ela7zh8cqv1sg"><rect x="130.42" y="252.22" width="8.26" height="30.84" style="fill: rgb(235, 235, 235); transform-origin: 134.55px 267.64px 0px; transform: rotate(180deg);" class="animable" id="elw8agzfb88gm"></rect></g><g id="elczc833zj2q"><rect x="153.34" y="251.69" width="8.26" height="30.84" style="fill: rgb(235, 235, 235); transform-origin: 157.47px 267.11px 0px; transform: rotate(-167.47deg);" class="animable" id="el6xk37qpf7oa"></rect></g><g id="elrlcpdgohvdi"><rect x="190.21" y="245.77" width="4.13" height="37.29" style="fill: rgb(235, 235, 235); transform-origin: 192.275px 264.415px 0px; transform: rotate(180deg);" class="animable" id="el0zpo9hifs9ch"></rect></g><g id="el3i9pyxz8h0l"><rect x="141.06" y="245.77" width="4.13" height="37.29" style="fill: rgb(235, 235, 235); transform-origin: 143.125px 264.415px 0px; transform: rotate(180deg);" class="animable" id="eli7k4ew3smpt"></rect></g><rect x="70.39" y="247.54" width="8.26" height="35.52" style="fill: rgb(235, 235, 235); transform-origin: 74.52px 265.3px 0px;" id="el9ilajs02fms" class="animable"></rect><rect x="80.63" y="252.22" width="8.26" height="30.84" style="fill: rgb(235, 235, 235); transform-origin: 84.76px 267.64px 0px;" id="el67z4bt2v2af" class="animable"></rect><rect x="99.62" y="252.22" width="8.26" height="30.84" style="fill: rgb(235, 235, 235); transform-origin: 103.75px 267.64px 0px;" id="els9ygj5avboq" class="animable"></rect><rect x="91.91" y="245.77" width="4.13" height="37.29" style="fill: rgb(235, 235, 235); transform-origin: 93.975px 264.415px 0px;" id="elf7vrx3edbot" class="animable"></rect><rect x="70.39" y="289.77" width="145.47" height="42.39" style="fill: rgb(224, 224, 224); transform-origin: 143.125px 310.965px 0px;" id="elwz2vlv91tjr" class="animable"></rect><rect x="153.89" y="296.63" width="8.26" height="35.52" style="fill: rgb(235, 235, 235); transform-origin: 158.02px 314.39px 0px;" id="el6ldtcta8lxj" class="animable"></rect><g id="el6121lsdxbai"><rect x="202.32" y="296.19" width="8.26" height="35.52" style="fill: rgb(235, 235, 235); transform-origin: 206.45px 313.95px 0px; transform: rotate(-9.78deg);" class="animable" id="el6b6nnsnywqi"></rect></g><rect x="124.17" y="301.32" width="8.26" height="30.84" style="fill: rgb(235, 235, 235); transform-origin: 128.3px 316.74px 0px;" id="elk828kfd0t3q" class="animable"></rect><rect x="143.16" y="301.32" width="8.26" height="30.84" style="fill: rgb(235, 235, 235); transform-origin: 147.29px 316.74px 0px;" id="el0t4edphr64p" class="animable"></rect><rect x="191.1" y="301.32" width="8.26" height="30.84" style="fill: rgb(235, 235, 235); transform-origin: 195.23px 316.74px 0px;" id="elrl6i78zoz6" class="animable"></rect><g id="eloh7ls98h3t9"><rect x="168.18" y="300.79" width="8.26" height="30.84" style="fill: rgb(235, 235, 235); transform-origin: 172.31px 316.21px 0px; transform: rotate(-12.53deg);" class="animable" id="eldf13suuoepc"></rect></g><rect x="135.44" y="294.87" width="4.13" height="37.29" style="fill: rgb(235, 235, 235); transform-origin: 137.505px 313.515px 0px;" id="el7jkbeiv7chj" class="animable"></rect><rect x="184.6" y="294.87" width="4.13" height="37.29" style="fill: rgb(235, 235, 235); transform-origin: 186.665px 313.515px 0px;" id="elzn37op7fr1s" class="animable"></rect><g id="elj3e4di1yb7c"><rect x="107.25" y="296.19" width="8.26" height="35.52" style="fill: rgb(235, 235, 235); transform-origin: 111.38px 313.95px 0px; transform: rotate(-9.78deg);" class="animable" id="el3b26clv96g"></rect></g><rect x="96.03" y="301.32" width="8.26" height="30.84" style="fill: rgb(235, 235, 235); transform-origin: 100.16px 316.74px 0px;" id="eltnblwkq44qp" class="animable"></rect><g id="elg72jt2yqmip"><rect x="73.11" y="300.79" width="8.26" height="30.84" style="fill: rgb(235, 235, 235); transform-origin: 77.24px 316.21px 0px; transform: rotate(-12.53deg);" class="animable" id="elfnsudzzjpjg"></rect></g><rect x="89.53" y="294.87" width="4.13" height="37.29" style="fill: rgb(235, 235, 235); transform-origin: 91.595px 313.515px 0px;" id="elevqz7mnfapf" class="animable"></rect><path d="M317,264.25h88.22a17.32,17.32,0,0,1,17.32,17.33v68.88H299.68V281.58A17.33,17.33,0,0,1,317,264.25Z" style="fill: rgb(230, 230, 230); transform-origin: 361.11px 307.355px 0px;" id="elifj4pygjnjn" class="animable"></path><path d="M273.6,315.31h15.78a10.3,10.3,0,0,1,10.3,10.29v57H263.3v-57A10.3,10.3,0,0,1,273.6,315.31Z" style="fill: rgb(224, 224, 224); transform-origin: 281.49px 348.955px 0px;" id="elt8k7zuz79ja" class="animable"></path><path d="M273.6,315.31h.33a10.3,10.3,0,0,1,10.3,10.29v57H263.3v-57A10.3,10.3,0,0,1,273.6,315.31Z" style="fill: rgb(235, 235, 235); transform-origin: 273.765px 348.955px 0px;" id="elcihe0jopu8" class="animable"></path><rect x="288.63" y="356.4" width="121.06" height="26.17" style="fill: rgb(230, 230, 230); transform-origin: 349.16px 369.485px 0px;" id="eleykdvrr4a1" class="animable"></rect><rect x="277.99" y="332.47" width="137.69" height="27.45" rx="10.47" style="fill: rgb(245, 245, 245); transform-origin: 346.835px 346.195px 0px;" id="elsriazivfea" class="animable"></rect><rect x="380.07" y="332.47" width="35.41" height="27.45" rx="10.47" style="fill: rgb(224, 224, 224); isolation: isolate; transform-origin: 397.775px 346.195px 0px;" id="elmfsjrbd61oo" class="animable"></rect><path d="M406.58,315.31h15.79a10.3,10.3,0,0,1,10.3,10.29v57H396.29v-57A10.29,10.29,0,0,1,406.58,315.31Z" style="fill: rgb(224, 224, 224); transform-origin: 414.48px 348.955px 0px;" id="el1lcegrrc201" class="animable"></path><path d="M406.58,315.31h.34a10.29,10.29,0,0,1,10.29,10.29v57H396.29v-57A10.29,10.29,0,0,1,406.58,315.31Z" style="fill: rgb(240, 240, 240); transform-origin: 406.75px 348.955px 0px;" id="elthot60yxd" class="animable"></path><g id="elxsy9wllxwh"><circle cx="145.19" cy="138.02" r="23.55" style="fill: rgb(224, 224, 224); transform-origin: 145.19px 138.02px 0px; transform: rotate(-9.22deg);" class="animable" id="elomnxcc20n9"></circle></g><g id="elnz5ka0vjao"><circle cx="145.19" cy="138.02" r="20.03" style="fill: rgb(240, 240, 240); transform-origin: 145.19px 138.02px 0px; transform: rotate(-9.22deg);" class="animable" id="elbqvxiemvlde"></circle></g><polyline points="144.25 151.76 144.25 137.76 134.97 143.01" style="fill: rgb(240, 240, 240); transform-origin: 139.61px 144.76px 0px;" id="elzee8f96eow" class="animable"></polyline><path d="M144.25,152.76a1,1,0,0,1-1-1V139.47l-7.79,4.41a1,1,0,0,1-1-1.74l9.27-5.25a1,1,0,0,1,1,0,1,1,0,0,1,.5.87v14A1,1,0,0,1,144.25,152.76Z" style="fill: rgb(224, 224, 224); transform-origin: 139.593px 144.758px 0px;" id="elcco3a6np94a" class="animable"></path></g><g id="freepik--Shadow--inject-1" style="transform-origin: 250px 416.24px 0px;" class="animable"><ellipse id="freepik--path--inject-1" cx="250" cy="416.24" rx="193.89" ry="11.32" style="fill: rgb(245, 245, 245); transform-origin: 250px 416.24px 0px;" class="animable"></ellipse></g><g id="freepik--Plant--inject-1" style="transform-origin: 102.677px 358.995px 0px;" class="animable"><path d="M118.1,366.84s7-9.81,12.29-5.91,3.5,13.2-2.18,13.94a14.39,14.39,0,0,1-9.64-2.13Z" style="fill: #029805; transform-origin: 125.823px 367.505px 0px;" id="el9k83wozpuk" class="animable"></path><g id="elfewx8bgkzku"><path d="M118.1,366.84s7-9.81,12.29-5.91,3.5,13.2-2.18,13.94a14.39,14.39,0,0,1-9.64-2.13Z" style="fill: rgb(255, 255, 255); isolation: isolate; opacity: 0.2; transform-origin: 125.823px 367.505px 0px;" class="animable" id="elhpc9g8i6von"></path></g><path d="M84.73,346s-7-6.29-11-4.82-2.22,17.69,9.72,10.13Z" style="fill: #029805; transform-origin: 78.2684px 347.133px 0px;" id="elec0d3zxezm" class="animable"></path><g id="elgn7t0rcx5ob"><path d="M84.73,346s-7-6.29-11-4.82-2.22,17.69,9.72,10.13Z" style="fill: rgb(255, 255, 255); isolation: isolate; opacity: 0.3; transform-origin: 78.2684px 347.133px 0px;" class="animable" id="elcjh2bsxibu"></path></g><path d="M111.92,394.9s19-30.87,1.25-35.41-18.55,25.08-13,32.88S111.92,394.9,111.92,394.9Z" style="fill: #029805; transform-origin: 108.938px 377.83px 0px;" id="ela4dxsm4pbg" class="animable"></path><path d="M97.31,335.93s-15.65-29.68,3.88-32.16,24.14,28.76,1.94,35.09Z" style="fill: #029805; transform-origin: 104.64px 321.245px 0px;" id="eloplapjar7e" class="animable"></path><g id="el87s8b57vsfg"><path d="M111.92,394.9s19-30.87,1.25-35.41-18.55,25.08-13,32.88S111.92,394.9,111.92,394.9Z" style="fill: rgb(255, 255, 255); isolation: isolate; opacity: 0.3; transform-origin: 108.938px 377.83px 0px;" class="animable" id="el05jezylblsml"></path></g><g id="el6vrzmx0wcha"><path d="M97.31,335.93s-15.65-29.68,3.88-32.16,24.14,28.76,1.94,35.09Z" style="fill: rgb(255, 255, 255); isolation: isolate; opacity: 0.3; transform-origin: 104.64px 321.245px 0px;" class="animable" id="elo8t0d9gtbjh"></path></g><path d="M104,360.72s4.3-27.64-8.24-28.83-22.81,24.28,3.74,34.59C99.49,366.48,103.66,363.41,104,360.72Z" style="fill: #029805; transform-origin: 93.7915px 349.165px 0px;" id="elqf2n68ay7pk" class="animable"></path><g id="elqd1933qj1a"><path d="M104,360.72s4.3-27.64-8.24-28.83-22.81,24.28,3.74,34.59C99.49,366.48,103.66,363.41,104,360.72Z" style="fill: rgb(255, 255, 255); isolation: isolate; opacity: 0.2; transform-origin: 93.7915px 349.165px 0px;" class="animable" id="el6vmfrv9l634"></path></g><polygon points="124.79 391.37 88.86 391.37 91.86 414.36 121.79 414.36 124.79 391.37" style="fill: rgb(38, 50, 56); transform-origin: 106.825px 402.865px 0px;" id="eloi62wym5jgc" class="animable"></polygon><path d="M103.76,333.21a30.66,30.66,0,0,0,2.08-2.76,28.35,28.35,0,0,0,1.84-2.9,31.51,31.51,0,0,0,2.73-6.22,21.25,21.25,0,0,0,.92-6.67l-.1-1.7c-.09-.56-.22-1.11-.32-1.67,0-.28-.09-.57-.16-.85l-.26-.81c-.19-.55-.36-1.1-.52-1.66a16.57,16.57,0,0,1,2.13,6.64,18.28,18.28,0,0,1-.73,7,26.07,26.07,0,0,1-7.61,11.59Z" style="fill: #029805; transform-origin: 107.967px 320.59px 0px;" id="el60ygjuuhpc7" class="animable"></path><path d="M106.38,306.48a16.18,16.18,0,0,0-8.39,9.7l-.45,1.57c-.13.53-.17,1.09-.28,1.62a27.73,27.73,0,0,0-.29,3.29c0,1.11.06,2.22.09,3.34s.27,2.22.36,3.35c-.31-1.08-.56-2.19-.84-3.29-.13-1.12-.31-2.25-.38-3.39a19.89,19.89,0,0,1,.84-6.8,15.17,15.17,0,0,1,3.54-5.89,15.38,15.38,0,0,1,2.68-2.16A12.11,12.11,0,0,1,106.38,306.48Z" style="fill: #029805; transform-origin: 101.277px 317.915px 0px;" id="ellxrnj5lrej8" class="animable"></path><path d="M93.47,334a11.59,11.59,0,0,0-3.29,3.06,12.41,12.41,0,0,0-2,3.94,15.29,15.29,0,0,0-.65,4.36,6.58,6.58,0,0,0,0,1.09c0,.36,0,.72.12,1.07a12.7,12.7,0,0,0,.63,2.1,24.81,24.81,0,0,0,4.82,7.45,41.86,41.86,0,0,0,3.15,3.24c1.08,1.06,2.23,2.05,3.41,3a37.73,37.73,0,0,1-7.12-5.74,28.8,28.8,0,0,1-3-3.52A19.73,19.73,0,0,1,87.4,350a13.42,13.42,0,0,1-.65-2.27,11.5,11.5,0,0,1-.12-1.18,5.28,5.28,0,0,1,0-1.19,14.4,14.4,0,0,1,.86-4.58A11.72,11.72,0,0,1,93.47,334Z" style="fill: #029805; transform-origin: 93.1282px 348.655px 0px;" id="elizxr7zhzrz" class="animable"></path><path d="M97.31,335.93c-.07,1.06-.15,2.11-.16,3.16a27.38,27.38,0,0,0,0,3.14,18.07,18.07,0,0,0,.43,3A6.93,6.93,0,0,0,98.78,348a12.18,12.18,0,0,1,.9,1.38,8.94,8.94,0,0,1,.66,1.53,14.61,14.61,0,0,1,.65,3.18,23.89,23.89,0,0,1-.19,6.38c0-1.06-.07-2.11-.18-3.16a26.69,26.69,0,0,0-.39-3.11A12,12,0,0,0,98,348.58a7.63,7.63,0,0,1-1.27-3.09,15.43,15.43,0,0,1-.28-3.24A25.29,25.29,0,0,1,97.31,335.93Z" style="fill: #029805; transform-origin: 98.7834px 348.2px 0px;" id="elg382dd3ahg8" class="animable"></path><path d="M108.18,362.68a3.2,3.2,0,0,0-1,1.25,10,10,0,0,0-.61,1.52,26.61,26.61,0,0,0-.81,3.19q-.62,3.24-1,6.54c-.29,2.19-.51,4.39-.75,6.59-.12,1.1-.23,2.21-.32,3.31s-.2,2.21-.27,3.32a43.86,43.86,0,0,1-.18-6.68c.07-2.23.26-4.45.53-6.67a49.75,49.75,0,0,1,1.27-6.59,23.13,23.13,0,0,1,1.1-3.19,9.77,9.77,0,0,1,.84-1.47A2.82,2.82,0,0,1,108.18,362.68Z" style="fill: #029805; transform-origin: 105.683px 375.54px 0px;" id="elhs55qwlxak" class="animable"></path><path d="M114.31,363.14a18.36,18.36,0,0,1,2.25,5.84,19.43,19.43,0,0,1,.26,6.32,10.49,10.49,0,0,1-.26,1.57c-.13.51-.21,1-.38,1.54a17,17,0,0,1-1.21,2.93,17.63,17.63,0,0,1-1.65,2.69,11.46,11.46,0,0,1-1,1.2c-.35.39-.71.77-1.07,1.14a29.34,29.34,0,0,0,3-5.35,20.53,20.53,0,0,0,1.56-5.84,23.28,23.28,0,0,0,0-6.07A27.44,27.44,0,0,0,114.31,363.14Z" style="fill: #029805; transform-origin: 114.108px 374.755px 0px;" id="elj2ffxi6u2y" class="animable"></path><path d="M80,349.7a4.15,4.15,0,0,1-1.76.43,5.17,5.17,0,0,1-1.82-.25,4.25,4.25,0,0,1-1.6-1,3.25,3.25,0,0,1-.91-1.58,13.57,13.57,0,0,0,1.39,1,7.67,7.67,0,0,0,1.44.63A25.2,25.2,0,0,0,80,349.7Z" style="fill: #029805; transform-origin: 76.955px 348.717px 0px;" id="elsn5c3auyzc" class="animable"></path><path d="M80.93,345.11l-1.65-.61a9.43,9.43,0,0,0-1.56-.45,5,5,0,0,0-1.54-.09,5.7,5.7,0,0,0-1.6.49A2.69,2.69,0,0,1,76,343.2a3.57,3.57,0,0,1,1.94-.13,4.73,4.73,0,0,1,1.72.74A4.44,4.44,0,0,1,80.93,345.11Z" style="fill: #029805; transform-origin: 77.755px 344.051px 0px;" id="elv6z2vpe217" class="animable"></path><path d="M121.74,367.93a8.47,8.47,0,0,1,1.27-2.2,8.8,8.8,0,0,1,1.88-1.77,4.72,4.72,0,0,1,2.52-.9,3.07,3.07,0,0,1,2.38,1,4.14,4.14,0,0,0-2.3-.25,5.5,5.5,0,0,0-2,1A35.13,35.13,0,0,0,121.74,367.93Z" style="fill: #029805; transform-origin: 125.765px 365.494px 0px;" id="elwn5jivxc2bn" class="animable"></path><path d="M122.1,372.46a50.47,50.47,0,0,0,5.71-.89,8.17,8.17,0,0,0,2.53-1,4.15,4.15,0,0,0,1.67-2.15,3.35,3.35,0,0,1-1.19,2.77,6.36,6.36,0,0,1-2.77,1.38,12.21,12.21,0,0,1-3,.33A10.94,10.94,0,0,1,122.1,372.46Z" style="fill: #029805; transform-origin: 127.058px 370.661px 0px;" id="elzo8vhphd5eh" class="animable"></path></g>

	<g id="freepik--Cat--inject-1"
	 style="transform-origin: 151.695px 379.627px 0px;" class="animable">
	 <path d="M183.59,357.33c.4,1.51-4.27,3.91-4.27,3.91A95.48,95.48,0,0,0,175,370c-2.8,6.25-9.5,10.73-9.5,10.73a190.48,190.48,0,0,1-5.89,31.14h0c2.6,0,4.38.34,2.91,3.89s-40.38,9.48-42.62-9.29c-2-17.28,20.91-32.39,24.2-37.47,1.65-2.54,1.69-6.19,1.34-9.1-.07-.56-.14-1.08-.24-1.58a25.48,25.48,0,0,0-.77-3.3l7.54,1.34,6.52,1.16s2.34,7.35,3,7.62,6.84,3.07,9,1.21A90.6,90.6,0,0,0,177,359s2.12-2.46,3.53-3.78S183.19,355.83,183.59,357.33Z" style="fill: #029805; transform-origin: 151.695px 387.157px 0px;" id="el8nbm739yq9j" class="animable"></path><g id="eldlegaci7ftw"><path d="M183.59,357.33c.4,1.51-4.27,3.91-4.27,3.91A95.48,95.48,0,0,0,175,370c-2.8,6.25-9.5,10.73-9.5,10.73a190.48,190.48,0,0,1-5.89,31.14h0c-8.3,5.06-25.08,2.75-32.11-.12s-5-7.61-5-7.61,1.35,3.55,3,4.89,13,2.84,13,2.84,16.38-12.5,3.37-20c-4.82-2.79-10.72,3.22-11,3.34,7.65-10.08,15.94-1.78,15.94-1.78-1.08-3.11,3-10,3-10-.13,3.41.23,10.94,2.29,12.94s-2,14.7-.49,15.73,3.47-1.43,3.47-1.43,1.66-15.14,1.23-18.18,1-3.41,2-5.34,2.54-5.48,2.54-5.48,3.21-12.58-1.79-13.51c-3.8-.71-10.71-5.9-13.7-8.26-.92-.73-1.48-1.2-1.48-1.2l1.24-.38c1.36-.4,3.75-1.11,6.77-2l6.52,1.16s2.34,7.35,3,7.62,6.84,3.07,9,1.21A90.6,90.6,0,0,0,177,359s2.12-2.46,3.53-3.78S183.19,355.83,183.59,357.33Z" style="opacity: 0.2; transform-origin: 152.921px 384.815px 0px;" class="animable" id="elbny6apv1sze"></path></g><path d="M164.5,351.87s-1.23-.09-2.09-.09.73-.84.73-.84c-1-1.13-3.81-.55-4.75-1.55s-1.41-2.14-2.21-2.73a5,5,0,0,0-1.83-.66,41.14,41.14,0,0,0-5.11-6.28,15.68,15.68,0,0,0-1.08,7.83,27.9,27.9,0,0,0-3.12,2,10.49,10.49,0,0,0-3,5,9.19,9.19,0,0,0,.08,4.45c.34,1.7,1.83,3.28,1.49,5.1l.75-.54-.52,1.78c.39-.23.78-.46,1.16-.7a3.64,3.64,0,0,1-.25,2.06l.49.06a25,25,0,0,1-.23,2.87,9,9,0,0,0,3.18-1.65,6.7,6.7,0,0,0,2.58-2.68c.47-1.19,1-.73,2.11-.95a20.76,20.76,0,0,0,3.26-1.08c1.89-.73,4.37-1.69,5.46-3.52a23.13,23.13,0,0,0,2.57-6l-1.56-.33Z" style="fill: #029805; transform-origin: 153.153px 354.675px 0px;" id="elqwkvlsgmisd" class="animable"></path><path d="M156.75,352.66s1.61-2.05,2.31-1.73.33,2.15.33,2.15S157.06,354.19,156.75,352.66Z" style="fill: rgb(38, 50, 56); transform-origin: 158.119px 352.183px 0px;" id="elsbmj8c8oo1r" class="animable"></path><path d="M152,353a.68.68,0,1,1-1.06-.29A.8.8,0,0,1,152,353Z" style="fill: rgb(38, 50, 56); transform-origin: 151.364px 353.269px 0px;" id="el03lyhxfhptk5" class="animable"></path><path d="M157.46,349a.78.78,0,0,1,.06,1.09c-.27.22-.74.09-1.05-.3a.79.79,0,0,1-.06-1.09C156.68,348.52,157.15,348.66,157.46,349Z" style="fill: rgb(38, 50, 56); transform-origin: 156.967px 349.409px 0px;" id="elaa2ko8m10zr" class="animable"></path><path d="M158.47,356.72h0a.67.67,0,0,1-.58-.43.2.2,0,0,1,.1-.24.19.19,0,0,1,.23.1c.08.18.19.21.27.21h0c.39,0,1-.54,1.39-1.16s-.48-2-.84-2.43a.19.19,0,0,1,0-.26.19.19,0,0,1,.25,0c.06.08,1.43,1.85.87,2.84C159.8,356,159.05,356.72,158.47,356.72Z" style="fill: rgb(38, 50, 56); transform-origin: 159.087px 354.592px 0px;" id="el4v8dtgoqe8k" class="animable"></path><path d="M160.38,354.61a1.93,1.93,0,0,1-.34,0,.18.18,0,1,1,.07-.35,2,2,0,0,0,1.16-.18.51.51,0,0,0,.29-.5.92.92,0,0,0-.23-.63.18.18,0,0,1,.17-.31,1.16,1.16,0,0,1,.42.95.88.88,0,0,1-.49.81A2.33,2.33,0,0,1,160.38,354.61Z" style="fill: rgb(38, 50, 56); transform-origin: 160.897px 353.624px 0px;" id="elmmnch2826wf" class="animable"></path><g id="elutogzxivsgc"><path d="M149.44,340.24c-.19-.14.1,3.56.93,6a9.09,9.09,0,0,1,3.22-.39S151.24,341.58,149.44,340.24Z" style="opacity: 0.2; transform-origin: 151.487px 343.238px 0px;" class="animable" id="el58wvvn64bmo"></path></g>
	 <path d="M145.8,350.44c-.21-.45-6.9-4.18-6.9-4.18s.65,11.82,6.32,11.8S145.8,350.44,145.8,350.44Z" style="fill: #029805; transform-origin: 143.4px 352.16px 0px;" id="elm1p7agkj25n" class="animable"></path><g id="elj635mxui5r"><path d="M145.84,351.33l-6.36-4.41s1.85,6.69,3.79,8.44S145.84,351.33,145.84,351.33Z" style="opacity: 0.2; transform-origin: 142.66px 351.305px 0px;" class="animable" id="ell0ahjbd603"></path></g></g><g id="freepik--vowel-u--inject-1" style="transform-origin: 299.676px 261.685px 0px;" class="animable"><path d="M322.81,286.51c6.28,15.8-37.72,27-39.36,7.52,0,0-11.51,1.51-19-5.69s-1.7-15.72-1.7-15.72-11.36-5.84-6.8-19.1,15.68-12.25,15.68-12.25-8.26-12.68,16.75-20.14,29.1,7,29.1,7,11.06-4,18.68,6.73c7.84,11.08-.87,20.71-.87,20.71s10.74,6.86,9,15.42C341.39,285.47,322.81,286.51,322.81,286.51Z" style="fill: #029805; transform-origin: 299.676px 261.685px 0px;" id="el9nynbeem3m" class="animable"></path><g id="el4a7hi0mtx2w"><path d="M322.81,286.51c6.28,15.8-37.72,27-39.36,7.52,0,0-11.51,1.51-19-5.69s-1.7-15.72-1.7-15.72-11.36-5.84-6.8-19.1,15.68-12.25,15.68-12.25-8.26-12.68,16.75-20.14,29.1,7,29.1,7,11.06-4,18.68,6.73c7.84,11.08-.87,20.71-.87,20.71s10.74,6.86,9,15.42C341.39,285.47,322.81,286.51,322.81,286.51Z" style="fill: rgb(255, 255, 255); isolation: isolate; opacity: 0.6; transform-origin: 299.676px 261.685px 0px;" class="animable" id="elnxjaid4qvjr"></path></g><path d="M306.2,271a4.44,4.44,0,0,1-4.27-3.24l-8.39-29.48a1,1,0,1,1,1.87-.53l8.39,29.48a2.51,2.51,0,0,0,4.91-.91l-.12-1.27a1,1,0,0,1,1.94-.18l.12,1.27a4.42,4.42,0,0,1-3.36,4.72A4.08,4.08,0,0,1,306.2,271Z" style="fill: rgb(38, 50, 56); transform-origin: 302.041px 253.894px 0px;" id="eleglt27cp03h" class="animable"></path><path d="M293,238.61s-.54-5.08.39-5.16,2.63,4,2.63,4Z" style="fill: rgb(38, 50, 56); transform-origin: 294.432px 236.029px 0px;" id="elrpate0zjit" class="animable"></path><path d="M321.9,246s-9.66-2.27-13.82,6.74a12,12,0,0,0-11.54-1.13c-6.57,2.73-8.36,7.73-8.36,7.73a9.42,9.42,0,0,0-12.69,1.77c0-.46,0-15,18-24.33a12.13,12.13,0,0,1,1.26-.29A28.49,28.49,0,0,1,321.9,246Z" style="fill: #029805; transform-origin: 298.695px 248.537px 0px;" id="elhgodxq0u08g" class="animable"></path><g id="elqx6rzjuv4w"><path d="M308.08,252.71a12,12,0,0,0-11.54-1.13c-6.57,2.73-8.36,7.73-8.36,7.73s-2.86-14.26,5.34-22.56a12.13,12.13,0,0,1,1.26-.29S302.87,238.59,308.08,252.71Z" style="fill: rgb(255, 255, 255); isolation: isolate; opacity: 0.2; transform-origin: 297.889px 247.885px 0px;" class="animable" id="elaesbj7bosp"></path></g><path d="M289.71,290.36a8.37,8.37,0,0,1-1.29-.1c-6.85-1.07-6.09-10.2-5.13-21.75l.14-1.67a1.21,1.21,0,1,1,2.42.2l-.14,1.67c-.95,11.42-1.31,18.46,3.09,19.15a3,3,0,0,0,2.68-.51c2.34-2,2.52-9.72,2.52-20.41a1.22,1.22,0,1,1,2.43,0c0,13.17-.34,19.66-3.37,22.26A4.93,4.93,0,0,1,289.71,290.36Z" style="fill: rgb(38, 50, 56); transform-origin: 289.553px 277.986px 0px;" id="eld6htwepdzki" class="animable"></path><path d="M306.37,289.32A3.67,3.67,0,0,1,303,287.5c-1.3-2.37-.33-7.81-.12-8.88a1.21,1.21,0,1,1,2.38.46c-.44,2.3-.78,6.07-.13,7.26a1.48,1.48,0,0,0,1.37.55,3.16,3.16,0,0,0,2.61-1.43c.71-1.56,1-5.33,1.05-6.66a1.25,1.25,0,0,1,1.25-1.16,1.22,1.22,0,0,1,1.18,1.25,31.6,31.6,0,0,0,.4,6.52,2.72,2.72,0,0,0,.11-.25,1.21,1.21,0,0,1,2.23,1c-.45,1.06-1.22,2.37-2.3,2.54a1.61,1.61,0,0,1-1.48-.55,3.35,3.35,0,0,1-.58-1,5.71,5.71,0,0,1-4.38,2.24Z" style="fill: rgb(38, 50, 56); transform-origin: 308.886px 283.514px 0px;" id="el5r6hm7lddew" class="animable"></path></g><g id="freepik--vowel-o--inject-1" style="transform-origin: 216.512px 243.761px 0px;" class="animable"><path d="M212.26,222.61c-5.7-9.48-28.85,8.87-19.42,17.4,0,0-5.33,5.37-4.57,12.09s7.47,7.09,7.47,7.09a10,10,0,0,0,7.2,11.06c8.66,2.87,12.53-3.28,12.53-3.28s3.31,9.28,17-.72,7.85-17.84,7.85-17.84a10.69,10.69,0,0,0,3.88-12.33c-2.64-8.42-11.06-7.72-11.06-7.72s.69-8.26-4.42-10.75C220.14,213.4,212.26,222.61,212.26,222.61Z" style="fill: #029805; transform-origin: 216.512px 243.761px 0px;" id="elccgkpz1xhos" class="animable"></path><g id="el295xdriapfz"><path d="M212.26,222.61c-5.7-9.48-28.85,8.87-19.42,17.4,0,0-5.33,5.37-4.57,12.09s7.47,7.09,7.47,7.09a10,10,0,0,0,7.2,11.06c8.66,2.87,12.53-3.28,12.53-3.28s3.31,9.28,17-.72,7.85-17.84,7.85-17.84a10.69,10.69,0,0,0,3.88-12.33c-2.64-8.42-11.06-7.72-11.06-7.72s.69-8.26-4.42-10.75C220.14,213.4,212.26,222.61,212.26,222.61Z" style="fill: rgb(255, 255, 255); isolation: isolate; opacity: 0.6; transform-origin: 216.512px 243.761px 0px;" class="animable" id="el0dfidcyaym0h"></path></g><path d="M210.33,264.58c-2.73,0-4.63-2.71-4.63-6.59a8.62,8.62,0,0,1,1-4.23,4.12,4.12,0,0,1,3.62-2.25c2.72,0,4.62,2.67,4.62,6.48S213.05,264.58,210.33,264.58Zm0-10.64c-.23,0-.92,0-1.51,1a6.24,6.24,0,0,0-.69,3c0,2,.77,4.16,2.2,4.16.22,0,.89,0,1.49-1.07a6.44,6.44,0,0,0,.7-3.09C212.52,256.36,211.94,253.94,210.33,253.94Z" style="fill: rgb(38, 50, 56); transform-origin: 210.319px 258.045px 0px;" id="elvydtoya2vc" class="animable"></path><path d="M221.71,264.82a3.69,3.69,0,1,1,3.68-3.69A3.69,3.69,0,0,1,221.71,264.82Zm0-4.95a1.26,1.26,0,0,0,0,2.52,1.26,1.26,0,1,0,0-2.52Z" style="fill: rgb(38, 50, 56); transform-origin: 221.7px 261.13px 0px;" id="elc7qsi5wd7hp" class="animable"></path><path d="M216.42,250c-12.87,0-15.46-17.51-2.52-19.52a16.6,16.6,0,0,1,2.52-.18,12.46,12.46,0,0,1,3.83.55C230.28,234.06,227.6,250,216.42,250Z" style="fill: #029805; transform-origin: 215.931px 240.149px 0px;" id="el1oxws72y299i" class="animable"></path><g id="el8m3cu0b8hf"><path d="M216.42,250a10.77,10.77,0,0,1-9.44-4.9,11,11,0,0,0,8.35,3.46c8.67,0,12.22-9.62,8.68-15.41C229.24,238.62,225.87,250,216.42,250Z" style="opacity: 0.2; transform-origin: 216.726px 241.579px 0px;" class="animable" id="el9ijmz3wzfxp"></path></g><g id="elmykhrzfknms"><path d="M219.52,232.18c.1.34-.91-.28-1.68,0s-1.06.91-1.4.44-1.24-.44-1.92-.44.34-.24.29-.91c0-.38-.5-.66-.91-.83a16.6,16.6,0,0,1,2.52-.18,12.46,12.46,0,0,1,3.83.55,4.51,4.51,0,0,0-1.58.51C217.92,231.85,219.42,231.85,219.52,232.18Z" style="opacity: 0.1; transform-origin: 217.075px 231.524px 0px;" class="animable" id="elkc7vqbe07u"></path></g><path d="M216,231.55a3.35,3.35,0,0,1,.61.2,2.22,2.22,0,0,1,.44-.06c.53-1.67-2.16-4.88-2.16-4.88l-1.13.24A7.19,7.19,0,0,1,216,231.55Z" style="fill: rgb(38, 50, 56); transform-origin: 215.44px 229.28px 0px;" id="el7orywh3zut9" class="animable"></path><path d="M216,229.88s1-5.29,6.31-4C222.31,225.89,222.46,230.79,216,229.88Z" style="fill: #029805; transform-origin: 219.155px 227.835px 0px;" id="el84q1n9u6k3m" class="animable"></path><g id="els62m21gwgn"><path d="M216,229.88s1-5.29,6.31-4C222.31,225.89,222.46,230.79,216,229.88Z" style="opacity: 0.4; transform-origin: 219.155px 227.835px 0px;" class="animable" id="elq2t9qqiin8c"></path></g><path d="M216,230.12a.27.27,0,0,1-.19-.08.25.25,0,0,1,0-.34c.13-.11,3-2.69,5.46-3.28a.24.24,0,0,1,.29.18.26.26,0,0,1-.18.3c-2.31.55-5.21,3.13-5.24,3.16A.27.27,0,0,1,216,230.12Z" style="fill: rgb(38, 50, 56); transform-origin: 218.654px 228.267px 0px;" id="elnwe3dqbmw0o" class="animable"></path></g><g id="freepik--vowel-i--inject-1" style="transform-origin: 138.268px 215.319px 0px;" class="animable"><path d="M176.29,217.88c17.5,7.17-4.29,46.5-21.55,33.35,0,0-6.88,9.25-18.14,9.27s-14.2-10.35-14.2-10.35-12.85,3.74-20.61-9.23.94-20.08.94-20.08-16.33-3.49-4.84-26.65,26.35-15.41,26.35-15.41S128.71,168,143,170.52a19.69,19.69,0,0,1,16.52,15.83s13.25-2.55,19.12,5C188.55,204,176.29,217.88,176.29,217.88Z" style="fill: #029805; transform-origin: 138.268px 215.319px 0px;" id="el6eg2dxwkf7" class="animable"></path><g id="el4xsmf6a59pm"><path d="M176.29,217.88c17.5,7.17-4.29,46.5-21.55,33.35,0,0-6.88,9.25-18.14,9.27s-14.2-10.35-14.2-10.35-12.85,3.74-20.61-9.23.94-20.08.94-20.08-16.33-3.49-4.84-26.65,26.35-15.41,26.35-15.41S128.71,168,143,170.52a19.69,19.69,0,0,1,16.52,15.83s13.25-2.55,19.12,5C188.55,204,176.29,217.88,176.29,217.88Z" style="fill: rgb(255, 255, 255); isolation: isolate; opacity: 0.6; transform-origin: 138.268px 215.319px 0px;" class="animable" id="el19crbhjq18s"></path></g><rect x="122.91" y="225.28" width="5.29" height="21.65" rx="2.64" style="fill: rgb(38, 50, 56); transform-origin: 125.555px 236.105px 0px;" id="el9uhl2qvh30p" class="animable"></rect><path d="M138.27,228.8c0,2-1.37,3.7-3.06,3.7H115.88c-1.69,0-3-1.67-3-3.73s.08-4.89.27-8.05c.74-12.56,3.49-30.68,13.07-30.68,8.41,0,11,16.4,11.78,28.83C138.2,222.78,138.27,226.31,138.27,228.8Z" style="fill: #029805; transform-origin: 125.575px 211.27px 0px;" id="el16k6swkokac" class="animable"></path><g id="el9qndhjpqauj"><path d="M138,218.87c-4.07,2.66-4.59-2.1-7.48-2.91s-3.89,3.62-3.57,8-1.56,5.85-3.27,4,.16-11.35-3-11.06-3.72,4.68-6.53,4.21a2.65,2.65,0,0,1-1-.42c.74-12.56,3.49-30.68,13.07-30.68C134.59,190,137.2,206.44,138,218.87Z" style="fill: rgb(255, 255, 255); isolation: isolate; opacity: 0.2; transform-origin: 125.575px 209.376px 0px;" class="animable" id="el1zpj5n0f8tm"></path></g><path d="M149.89,230.47h-.16a1.44,1.44,0,0,1-1.29-1.6,98.58,98.58,0,0,0,0-17.83,1.46,1.46,0,0,1,2.9-.3,99,99,0,0,1,0,18.44A1.45,1.45,0,0,1,149.89,230.47Z" style="fill: rgb(38, 50, 56); transform-origin: 150.1px 219.99px 0px;" id="elam1tnm297r" class="animable"></path><path d="M146.69,211.54a1.46,1.46,0,0,1-.27-2.89l6.15-1.15a1.46,1.46,0,1,1,.54,2.86L147,211.52Z" style="fill: rgb(38, 50, 56); transform-origin: 149.834px 209.494px 0px;" id="elrc7ct81qnss" class="animable"></path><path d="M146.05,231.18a1.46,1.46,0,0,1-.15-2.91l6.79-.7a1.45,1.45,0,1,1,.3,2.89l-6.79.71Z" style="fill: rgb(38, 50, 56); transform-origin: 149.451px 229.371px 0px;" id="elg51n6gu4xk9" class="animable"></path><path d="M165.35,231.18a2.15,2.15,0,0,1-.43,0,2.27,2.27,0,0,1-1.69-1.68c-.55-1.73-.19-8.25-.06-10.21a1.46,1.46,0,0,1,2.91.19,80,80,0,0,0-.18,8.27,1.46,1.46,0,0,1,1.74,2.27A3.37,3.37,0,0,1,165.35,231.18Zm.66-2.61h0Z" style="fill: rgb(38, 50, 56); transform-origin: 165.465px 224.595px 0px;" id="elyp3ubbc0e" class="animable"></path><circle cx="164.69" cy="213.77" r="1.86" style="fill: rgb(38, 50, 56); transform-origin: 164.69px 213.77px 0px;" id="elddnl0iexe4a" class="animable"></circle></g><g id="freepik--vowel-e--inject-1" style="transform-origin: 207.14px 324.396px 0px;" class="animable"><path d="M204.32,297.42c3.31-12.85,36.21.34,28.28,13.37,0,0,8,4.35,9.38,12.34s-6.16,10.7-6.16,10.7a12,12,0,0,1-4.5,15.18c-9,6.26-15.53.5-15.53.5s-.63,11.8-19.83,5-15.12-17.83-15.12-17.83a12.82,12.82,0,0,1-8.69-12.84c.16-10.59,10.09-12.66,10.09-12.66s-3.62-9.27,1.4-13.87C192.12,289.52,204.32,297.42,204.32,297.42Z" style="fill: #029805; transform-origin: 207.14px 324.396px 0px;" id="el3z47marfss6" class="animable"></path><g id="elo5ynz0k5ni"><path d="M204.32,297.42c3.31-12.85,36.21.34,28.28,13.37,0,0,8,4.35,9.38,12.34s-6.16,10.7-6.16,10.7a12,12,0,0,1-4.5,15.18c-9,6.26-15.53.5-15.53.5s-.63,11.8-19.83,5-15.12-17.83-15.12-17.83a12.82,12.82,0,0,1-8.69-12.84c.16-10.59,10.09-12.66,10.09-12.66s-3.62-9.27,1.4-13.87C192.12,289.52,204.32,297.42,204.32,297.42Z" style="fill: rgb(255, 255, 255); isolation: isolate; opacity: 0.6; transform-origin: 207.14px 324.396px 0px;" class="animable" id="ely0g8np9lzwt"></path></g><path d="M202.66,347.12h-9.1a1.21,1.21,0,0,1-1.21-1.21V333.74a1.22,1.22,0,0,1,1.21-1.22h9.61a1.22,1.22,0,0,1,0,2.43h-8.4v9.74h7.89a1.22,1.22,0,0,1,0,2.43Z" style="fill: rgb(38, 50, 56); transform-origin: 198.315px 339.82px 0px;" id="elpx82irwu148" class="animable"></path><path d="M198.36,341h-4.8a1.22,1.22,0,0,1,0-2.43h4.8a1.22,1.22,0,1,1,0,2.43Z" style="fill: rgb(38, 50, 56); transform-origin: 196.07px 339.785px 0px;" id="elo3vt6wvcma" class="animable"></path><path d="M212.09,346H212c-2.76-.06-4.21-2.84-4.17-5.44,0-2.83,1.75-4.81,4.17-4.81h0a4.46,4.46,0,0,1,4.26,3.92,1.21,1.21,0,0,1-1,1.38l-4.88.82c.27.93.84,1.68,1.63,1.7a2.83,2.83,0,0,0,2.1-.83,1.24,1.24,0,0,1,1.71-.18,1.22,1.22,0,0,1,.2,1.69A5.17,5.17,0,0,1,212.09,346Zm-.11-7.82a1.6,1.6,0,0,0-1.55,1.23l3-.51a1.7,1.7,0,0,0-1.4-.72Z" style="fill: rgb(38, 50, 56); transform-origin: 212.052px 340.875px 0px;" id="elyw5vvun1pf" class="animable"></path><path d="M202.67,302.31c8.84,1.38,6.38,32.27-9.56,24.8S192.76,300.77,202.67,302.31Z" style="fill: rgb(255, 255, 255); transform-origin: 197px 315.247px 0px;" id="elfzclbyiwrsb" class="animable"></path><g id="elsa18qt1e7q"><path d="M193.11,327.11c-4.11-1.93-6.12-4.61-6.68-7.49a12.32,12.32,0,0,0,5.72,4.88c11.91,5.59,16.3-10.28,14.06-19.21C210.27,313.16,206.31,333.31,193.11,327.11Z" style="opacity: 0.1; transform-origin: 197.081px 316.783px 0px;" class="animable" id="ellc6ipc5hno"></path></g><path d="M207.83,329.8c-.82-.3-1.66-.6-2.54-.87-1.46-.46-3-1.31-3.41-2.78-.34-1.24.21-2.62-.22-3.83a5.31,5.31,0,0,1-.51-1.41,2.17,2.17,0,0,1,1.17-1.73c2.73-1.85,6.28-1.72,9.57-1.57,3.47.17,6.73-.31,10.15-.43,3-.1,5.53.6,5.25,3.95a2.17,2.17,0,0,0,.61,2,4,4,0,0,0,1.67.44,6.3,6.3,0,0,1,1.7.75,1.24,1.24,0,0,1,.54.47,1.19,1.19,0,0,1,.08.62c-.2,3.16-.49,4.39-3.82,4.39-3.72-.1-7.21,1.34-10.87,1.76S210.87,330.88,207.83,329.8Z" style="fill: #029805; transform-origin: 216.526px 324.411px 0px;" id="elykaa2mw45a" class="animable"></path><g id="elwikuxd2tzd"><path d="M207.83,329.8c-.82-.3-1.66-.6-2.54-.87-1.46-.46-3-1.31-3.41-2.78-.34-1.24.21-2.62-.22-3.83a5.31,5.31,0,0,1-.51-1.41,2.17,2.17,0,0,1,1.17-1.73c2.73-1.85,6.28-1.72,9.57-1.57,3.47.17,6.73-.31,10.15-.43,3-.1,5.53.6,5.25,3.95a2.17,2.17,0,0,0,.61,2,4,4,0,0,0,1.67.44,6.3,6.3,0,0,1,1.7.75,1.24,1.24,0,0,1,.54.47,1.19,1.19,0,0,1,.08.62c-.2,3.16-.49,4.39-3.82,4.39-3.72-.1-7.21,1.34-10.87,1.76S210.87,330.88,207.83,329.8Z" style="fill: rgb(255, 255, 255); isolation: isolate; opacity: 0.8; transform-origin: 216.526px 324.411px 0px;" class="animable" id="elkxpgitd1hfn"></path></g><path d="M205.94,322.59a2.23,2.23,0,0,1,1.16-1.75,13.47,13.47,0,0,1,3.55-1.58,7.16,7.16,0,0,1,4.39-.11,5.77,5.77,0,0,1,3,2.39,2.59,2.59,0,0,1,.45,1.34,1.4,1.4,0,0,1-1.23,1.36,38.65,38.65,0,0,1-4.29.82c-2,.28-5,.48-6.47-1.21A1.88,1.88,0,0,1,205.94,322.59Z" style="fill: #029805; transform-origin: 212.215px 322.053px 0px;" id="el8d6hg08n7lm" class="animable"></path><g id="eljy5ey9mgvds"><path d="M209.44,320.54c-.27.06-2.74,1-2.39,1.76a4.21,4.21,0,0,0,2.93,1.42c.54-.13-2.21-.81-1.48-1.69S209.83,320.45,209.44,320.54Z" style="fill: rgb(255, 255, 255); isolation: isolate; opacity: 0.4; transform-origin: 208.533px 322.126px 0px;" class="animable" id="elw9awueocr3"></path></g></g><g id="freepik--vowel-a--inject-1" style="transform-origin: 261.843px 138.03px 0px;" class="animable"><path d="M237.63,92.74C234.56,67.2,303.22,67.85,298.1,97c0,0,17.42,2.25,25.62,15.67s-3.59,23.65-3.59,23.65,14.35,12.93,2.56,30.57S295,178.69,295,178.69s7.18,21.74-32.28,23-39.85-21.52-39.85-21.52-17.74,1.62-24.71-17.07c-7.18-19.23,9.28-30,9.28-30s-13.05-14.17-7.23-26C210.05,87.07,237.63,92.74,237.63,92.74Z" style="fill: #029805; transform-origin: 261.843px 138.03px 0px;" id="elb722ly6jjxw" class="animable"></path><g id="elbasnyj7vdst"><path d="M237.63,92.74C234.56,67.2,303.22,67.85,298.1,97c0,0,17.42,2.25,25.62,15.67s-3.59,23.65-3.59,23.65,14.35,12.93,2.56,30.57S295,178.69,295,178.69s7.18,21.74-32.28,23-39.85-21.52-39.85-21.52-17.74,1.62-24.71-17.07c-7.18-19.23,9.28-30,9.28-30s-13.05-14.17-7.23-26C210.05,87.07,237.63,92.74,237.63,92.74Z" style="fill: rgb(255, 255, 255); isolation: isolate; opacity: 0.6; transform-origin: 261.843px 138.03px 0px;" class="animable" id="elhec6btup7wg"></path></g><path d="M261.85,104.93s1-7.83,10.11-7.28C272,97.65,273.14,106.84,261.85,104.93Z" style="fill: #029805; transform-origin: 266.93px 101.407px 0px;" id="elqrmfatrckwn" class="animable"></path><g id="elr7yp08j4haq"><path d="M261.85,104.93s1-7.83,10.11-7.28C272,97.65,273.14,106.84,261.85,104.93Z" style="opacity: 0.2; transform-origin: 266.93px 101.407px 0px;" class="animable" id="elvscb48kr90c"></path></g><path d="M263.94,112.22s1.64-7.47-6.91-14.57l-2.64,1.91s6.73,5.19,8.1,12.66Z" style="fill: rgb(38, 50, 56); transform-origin: 259.228px 104.935px 0px;" id="elqxw2kh6s55m" class="animable"></path><path d="M281.85,144.77c-4.5,6-11.18,8.62-19,2.55,0,0-4.31,6.36-12.75,3.08-10.24-4-19.94-25.16-10.65-36.87a16.63,16.63,0,0,1,8.31-6.07h0c8.06-2.36,15.08,4.12,15.08,4.12s11.14-10,21.66,2C290.37,120.17,288.42,136.05,281.85,144.77Z" style="fill: #029805; transform-origin: 261.852px 129.141px 0px;" id="el5si45mjbr9u" class="animable"></path><g id="el5o59evfdz5v"><path d="M281.85,144.77c-4.5,6-11.18,8.62-19,2.55,0,0-4.31,6.36-12.75,3.08-10.24-4-19.94-25.16-10.65-36.87a16.63,16.63,0,0,1,8.31-6.07c-7.17,5.88-9.35,26.26.7,35.56,10.38,9.61,15.48.83,15.48.83a11.07,11.07,0,0,0,6,4.83C273,149.81,277.41,148.92,281.85,144.77Z" style="opacity: 0.2; transform-origin: 258.779px 129.4px 0px;" class="animable" id="elcqz26xhy92"></path></g><path d="M261.85,105.18a.26.26,0,0,1-.23-.16.24.24,0,0,1,.15-.31,25.69,25.69,0,0,0,9-6.14.24.24,0,1,1,.36.33,26.27,26.27,0,0,1-9.18,6.26Z" style="fill: rgb(38, 50, 56); transform-origin: 266.4px 101.835px 0px;" id="elemhrq83ojba" class="animable"></path><path d="M257.61,180.51a1.45,1.45,0,0,1-1.41-1.08l-4.47-16.72L243.5,177a1.46,1.46,0,1,1-2.53-1.45l10-17.37a1.46,1.46,0,0,1,1.46-.71,1.43,1.43,0,0,1,1.21,1.06L259,178.68a1.45,1.45,0,0,1-1,1.78A1.18,1.18,0,0,1,257.61,180.51Z" style="fill: rgb(38, 50, 56); transform-origin: 249.895px 168.984px 0px;" id="el9rhpu7d3xqc" class="animable"></path><path d="M254.39,170.82h-.07l-8-.38a1.46,1.46,0,0,1,.14-2.91l8,.38a1.46,1.46,0,0,1-.07,2.91Z" style="fill: rgb(38, 50, 56); transform-origin: 250.399px 169.175px 0px;" id="elt9wa7bqwur" class="animable"></path><path d="M278.08,180.75a2.28,2.28,0,0,1-1.48-.56,5.07,5.07,0,0,1-1.32-2.72,6.37,6.37,0,0,1-2.38,2.18,8,8,0,0,1-7.13-.06,5.64,5.64,0,0,1-3-4.32c-.76-6.11,2.43-9.27,5.67-10.19a7.37,7.37,0,0,1,6.93,1.34,1.45,1.45,0,0,1,2.6.93c0,.23,0,.82-.1,1.65-.2,4,0,7.75.57,8.81a1.45,1.45,0,0,1,.27,2.86A2.38,2.38,0,0,1,278.08,180.75Zm-7.43-13.08a5.26,5.26,0,0,0-1.46.21c-1.3.37-4.23,1.79-3.58,7a2.79,2.79,0,0,0,1.54,2.11,5.09,5.09,0,0,0,4.46,0c1.72-.86,2.71-4.06,3.14-6.95a1.48,1.48,0,0,1-.81-.75A3.52,3.52,0,0,0,270.65,167.67Z" style="fill: rgb(38, 50, 56); transform-origin: 271.242px 172.741px 0px;" id="els1fc72mdb5" class="animable"></path></g><g id="freepik--Character--inject-1" style="transform-origin: 359.248px 293.031px 0px;" class="animable"><path d="M323.46,214.56,316.81,213l4.75-5.9s5.85,1.77,4.82,4.74Z" style="fill: rgb(255, 181, 115); transform-origin: 321.656px 210.83px 0px;" id="elija1netsod" class="animable"></path><polygon points="312 208.23 317.81 204.54 321.56 207.08 316.81 212.98 312 208.23" style="fill: rgb(255, 181, 115); transform-origin: 316.78px 208.76px 0px;" id="elaeao9gz5g8r" class="animable"></polygon><path d="M370.11,213.13c-.69.63-1.38,1.24-2.07,1.85-.35.3-.71.61-1.07.9-1.8,1.53-3.65,3-5.55,4.37l-1.38,1c-1.07.73-2.14,1.47-3.24,2.17-.76.49-1.54,1-2.35,1.42s-1.67.92-2.56,1.36l-.52.25a21.78,21.78,0,0,1-3.57,1.39,14.07,14.07,0,0,1-2.22.49,11.35,11.35,0,0,1-1.36.11h-.43a9.68,9.68,0,0,1-1-.1,14.84,14.84,0,0,1-4.12-1.35,35.15,35.15,0,0,1-5-3.06c-.28-.19-.57-.39-.84-.6a68.52,68.52,0,0,1-5.65-4.72q-2-1.89-3.94-3.94l3.21-3.89c1.4.81,2.8,1.63,4.21,2.43,2.12,1.21,4.24,2.39,6.34,3.47l.92.46c1.26.62,2.5,1.18,3.65,1.61l.5.17a7.26,7.26,0,0,0,1.83.39c.1,0,0,0,.07,0s.07,0,.2-.06.46-.14.78-.27a27.7,27.7,0,0,0,4.47-2.49l.09-.05c1.54-1,3.1-2.13,4.64-3.32l.32-.25c2.17-1.65,4.37-3.42,6.5-5.2.82-.69,1.64-1.37,2.43-2.05,0,0,2.28-2.48,4.79-2.48C371.63,203.09,370.11,213.13,370.11,213.13Z" style="fill: #029805; transform-origin: 346.842px 215.79px 0px;" id="elxuwqdhdhjkt" class="animable"></path><g id="elxke54cdhxrj"><path d="M336.93,216.66l.92.46-4.25,6.79c-.28-.19-.57-.39-.84-.6a68.52,68.52,0,0,1-5.65-4.72l3.48-5.4C332.71,214.4,334.83,215.58,336.93,216.66Z" style="fill: rgb(255, 255, 255); opacity: 0.2; transform-origin: 332.48px 218.55px 0px;" class="animable" id="elgvso749kjja"></path></g><g id="elewwwcf048ga"><path d="M351.89,226.19l-.52.25a21.78,21.78,0,0,1-3.57,1.39,14.07,14.07,0,0,1-2.22.49,11.35,11.35,0,0,1-1.36.11h-.43l-2.29-9.69.5.17a7.26,7.26,0,0,0,1.83.39c.1,0,0,0,.07,0s.07,0,.2-.06.46-.14.78-.27a27.7,27.7,0,0,0,4.47-2.49l.09-.05Z" style="fill: rgb(255, 255, 255); opacity: 0.2; transform-origin: 346.695px 222.43px 0px;" class="animable" id="elkbg1voty69m"></path></g><g id="elexl95r2aypl"><path d="M368,215c-2.15,1.85-4.34,3.59-6.62,5.27l-7-7.43c2.17-1.65,4.37-3.42,6.5-5.2Z" style="fill: rgb(255, 255, 255); opacity: 0.2; transform-origin: 361.19px 213.955px 0px;" class="animable" id="elw1memv2cc1d"></path></g><g id="el5dguh6eu35r"><path d="M367,215.88c-1.8,1.53-3.65,3-5.55,4.37l-1.38,1c-1.07.73-2.14,1.47-3.24,2.17-.07-9.68,10-11,10-11A6.86,6.86,0,0,1,367,215.88Z" style="opacity: 0.2; transform-origin: 361.987px 217.92px 0px;" class="animable" id="eluxnpenar5b"></path></g><polygon points="335.63 404.3 329.32 402.01 332.79 386.79 339.1 389.09 335.63 404.3" style="fill: rgb(255, 181, 115); transform-origin: 334.21px 395.545px 0px;" id="elhbvvkt6r93" class="animable"></polygon><polygon points="385.43 412.68 378.72 412.68 376.82 397.16 383.52 397.16 385.43 412.68" style="fill: rgb(255, 181, 115); transform-origin: 381.125px 404.92px 0px;" id="el0gabxfljtbz" class="animable"></polygon><path d="M377.84,411.91H386a.59.59,0,0,1,.58.46l1.38,5.95a1,1,0,0,1-1,1.2c-2.63,0-4.55-.2-7.86-.2-2,0-8.17.21-11,.21s-3.21-2.78-2.06-3c5.16-1.13,9-2.68,10.67-4.17A1.6,1.6,0,0,1,377.84,411.91Z" style="fill: rgb(38, 50, 56); transform-origin: 376.707px 415.72px 0px;" id="eleok8n5pm82o" class="animable"></path><path d="M329.08,400.72l7.18,1.54a.59.59,0,0,1,.46.57l.11,6.1a1,1,0,0,1-1.19,1c-2.58-.6-6.28-1.55-9.53-2.25-3.81-.81-6.16-1.58-10.62-2.54-2.7-.58-2.89-3.46-1.71-3.46,5.37,0,8.62,1,13.62-.75A3.12,3.12,0,0,1,329.08,400.72Z" style="fill: rgb(38, 50, 56); transform-origin: 324.96px 405.317px 0px;" id="elzb0f5iokxko" class="animable"></path><g id="eleyx5it3xpnl"><polygon points="332.79 386.8 331 394.64 337.31 396.93 339.11 389.09 332.79 386.8" style="opacity: 0.2; transform-origin: 335.055px 391.865px 0px;" class="animable" id="el6iwsi9hhbfs"></polygon></g><g id="elw92lk8ur23"><polygon points="383.52 397.17 376.82 397.17 377.8 405.17 384.51 405.17 383.52 397.17" style="opacity: 0.2; transform-origin: 380.665px 401.17px 0px;" class="animable" id="elynvgopihnob"></polygon></g><path d="M329.15,392.32l10.69,3.88s8.35-36.77,12.79-57.16a218.62,218.62,0,0,1,7.28-23.81c4.06-11.45,8.9-23.76,12.81-33.39,4.12-10.15,7.19-17.3,7.19-17.3l-23.11-4.68s-17.64,50.75-21.6,70.81C331.08,351.52,329.15,392.32,329.15,392.32Z" style="fill: rgb(38, 50, 56); transform-origin: 354.53px 328.03px 0px;" id="elec6nmmd2v0j" class="animable"></path><g id="elk2n6lhcilk"><g style="opacity: 0.3; transform-origin: 354.53px 328.03px 0px;" class="animable" id="el6uz4s67f8ai"><path d="M329.15,392.32l10.69,3.88s8.35-36.77,12.79-57.16a218.62,218.62,0,0,1,7.28-23.81c4.06-11.45,8.9-23.76,12.81-33.39,4.12-10.15,7.19-17.3,7.19-17.3l-23.11-4.68s-17.64,50.75-21.6,70.81C331.08,351.52,329.15,392.32,329.15,392.32Z" style="fill: rgb(255, 255, 255); transform-origin: 354.53px 328.03px 0px;" id="elhrth62a6u1w" class="animable"></path></g></g><g id="elhx2m5ioeqkb"><path d="M359.91,315.23c4.06-11.45,8.9-23.76,12.81-33.39l-1.79-5.54C364.32,282.42,360.19,303.51,359.91,315.23Z" style="opacity: 0.2; transform-origin: 366.315px 295.765px 0px;" class="animable" id="el23bd3gnwy8v"></path></g><path d="M369.27,262.38s-4.13,57.87-4.38,77.53c-.27,21.54,9.8,63.71,9.8,63.71H387s-4.91-38.05-3.28-59.39C385.52,320.38,392,267,392,267Z" style="fill: rgb(38, 50, 56); transform-origin: 378.442px 333px 0px;" id="eldhsh2wxf8yg" class="animable"></path><g id="elz0kz7b28hvm"><g style="opacity: 0.3; transform-origin: 378.442px 333px 0px;" class="animable" id="eln75s8p4yalo"><path d="M369.27,262.38s-4.13,57.87-4.38,77.53c-.27,21.54,9.8,63.71,9.8,63.71H387s-4.91-38.05-3.28-59.39C385.52,320.38,392,267,392,267Z" style="fill: rgb(255, 255, 255); transform-origin: 378.442px 333px 0px;" id="els6ixbcv0x1n" class="animable"></path></g></g><polygon points="373.22 403.88 387.68 403.88 387.63 399.57 372.54 398.69 373.22 403.88" style="fill: rgb(38, 50, 56); transform-origin: 380.11px 401.285px 0px;" id="elfhjvm49xfc" class="animable"></polygon><polygon points="327.72 392.19 340.52 396.63 341.92 392.5 327.91 387.4 327.72 392.19" style="fill: rgb(38, 50, 56); transform-origin: 334.82px 392.015px 0px;" id="elzxwsas0sd1" class="animable"></polygon><path d="M375.64,413.08a2.05,2.05,0,0,1-1.29-.34,1,1,0,0,1-.34-.84.48.48,0,0,1,.27-.45c.73-.38,2.91.95,3.15,1.1a.15.15,0,0,1,.08.16.18.18,0,0,1-.12.13A8,8,0,0,1,375.64,413.08Zm-1-1.39a.46.46,0,0,0-.21,0s-.09.06-.09.19a.6.6,0,0,0,.22.57,3.25,3.25,0,0,0,2.38.13A6.5,6.5,0,0,0,374.63,411.69Z" style="fill: #029805; transform-origin: 375.759px 412.234px 0px;" id="elg0k154kbjrr" class="animable"></path><path d="M377.35,412.84a.1.1,0,0,1-.07,0c-.7-.37-2.06-1.84-1.92-2.59a.5.5,0,0,1,.5-.41.86.86,0,0,1,.68.2c.78.64,1,2.57,1,2.65a.17.17,0,0,1-.07.15ZM376,410.13h-.07c-.2,0-.22.12-.23.16-.08.44.79,1.55,1.48,2.08a3.81,3.81,0,0,0-.81-2.1A.55.55,0,0,0,376,410.13Z" style="fill: #029805; transform-origin: 376.445px 411.339px 0px;" id="elo9xizln1nu" class="animable"></path><path d="M328.25,401.49h0c-1.1,0-3-.16-3.63-.95a.91.91,0,0,1-.13-.82.5.5,0,0,1,.34-.36c.89-.28,3.25,1.63,3.52,1.85a.17.17,0,0,1,.05.18A.17.17,0,0,1,328.25,401.49ZM325,399.65l-.06,0a.2.2,0,0,0-.14.14.57.57,0,0,0,.09.54c.33.44,1.4.74,2.9.81C326.82,400.44,325.5,399.59,325,399.65Z" style="fill: #029805; transform-origin: 326.426px 400.411px 0px;" id="elcm2199u7iuf" class="animable"></path><path d="M328.25,401.49a.2.2,0,0,1-.11,0c-.72-.53-2-2.28-1.73-3,.07-.17.23-.36.67-.31a1.14,1.14,0,0,1,.81.45,4.56,4.56,0,0,1,.5,2.74.18.18,0,0,1-.09.13Zm-1.37-3c-.14,0-.16.08-.17.11-.16.43.67,1.77,1.38,2.43a3.7,3.7,0,0,0-.45-2.2.86.86,0,0,0-.59-.34A.48.48,0,0,0,326.88,398.47Z" style="fill: #029805; transform-origin: 327.401px 399.836px 0px;" id="el9lzlshddar4" class="animable"></path><path d="M405,210.22c-1,2.48-2,5-2.83,7.51q-1.43,4.14-2.56,8.24c-.53,1.88-1,3.74-1.47,5.58l-.45,1.86c-.35,1.47-.67,2.93-1,4.36s-.56,2.72-.81,4-.54,2.79-.77,4.13-.45,2.63-.65,3.88c-.23,1.4-.43,2.74-.61,4-.24,1.61-.44,3.11-.63,4.49-.57,4.16-.95,7.2-1.3,8.66l-35.15-7.12c0-2.76,0-5.41.12-8,.07-1.71.15-3.37.26-5q.1-1.6.24-3.15c.13-1.57.29-3.1.45-4.57.2-1.67.41-3.26.64-4.8.43-2.85.92-5.49,1.43-7.94.64-3,1.32-5.65,2-8,.88-3,1.77-5.58,2.59-7.7a48.77,48.77,0,0,1,3.57-7.61,68.65,68.65,0,0,1,8.62,0c.6,0,1.21.11,1.84.18a130.74,130.74,0,0,1,14.95,3c.93.23,1.88.51,2.79.78C401,208.51,405,210.22,405,210.22Z" style="fill: #029805; transform-origin: 380.885px 234.917px 0px;" id="elnnnoxhkqll" class="animable"></path><g id="elnjahdxg83f"><path d="M394.5,249.81c-.51,3.16-.91,6-1.24,8.51l-36.33-6.43c.11-2.83.27-5.54.5-8.13Z" style="fill: rgb(255, 255, 255); opacity: 0.2; transform-origin: 375.715px 251.04px 0px;" class="animable" id="elm0rtb3c1hk"></path></g><g id="el28bjebmpwm1i"><path d="M397.7,233.41c-.68,2.88-1.27,5.7-1.78,8.39l-37.4-7.41c.43-2.85.92-5.49,1.43-7.94Z" style="fill: rgb(255, 255, 255); opacity: 0.2; transform-origin: 378.11px 234.125px 0px;" class="animable" id="ellrxsk7tio5"></path></g><g id="elrj42h6z32oi"><path d="M402.18,217.73q-1.43,4.14-2.56,8.24L362,218.4c.88-3,1.77-5.58,2.59-7.7Z" style="fill: rgb(255, 255, 255); opacity: 0.2; transform-origin: 382.09px 218.335px 0px;" class="animable" id="elrmatyro05yi"></path></g><path d="M395.28,189.2c-1.86,4.62-4.5,13.25-1.75,17.14a15.1,15.1,0,0,1-12.41,2.25c-4.12-.92-3.77-3.86-2.54-5.28,5.61-.19,6.24-4.2,6-8.13Z" style="fill: rgb(255, 181, 115); transform-origin: 386.518px 199.133px 0px;" id="elnvci4imy8r8" class="animable"></path><path d="M381,208.57s1.16,2.32,2.6,4.67c3-.87,10.18-3.38,10.69-7a3.7,3.7,0,0,0-1.38-2A39.56,39.56,0,0,1,381,208.57Z" style="fill: rgb(255, 255, 255); transform-origin: 387.645px 208.74px 0px;" id="elk6b9kiw9wfg" class="animable"></path><path d="M381,208.57a19.37,19.37,0,0,0-4.36,3.19c-1.66-1.78.85-8.19,1.74-8.77a4.7,4.7,0,0,1,2.85-.33S378.06,207.14,381,208.57Z" style="fill: rgb(255, 255, 255); transform-origin: 378.658px 207.166px 0px;" id="elsult57myn9" class="animable"></path><g id="elrlsh7d7l6l"><path d="M390.93,191.64l-6.32,3.54a16.76,16.76,0,0,1-.05,2.75c2.1.12,5.35-1.56,6-3.67A7.37,7.37,0,0,0,390.93,191.64Z" style="opacity: 0.2; transform-origin: 387.748px 194.788px 0px;" class="animable" id="elg0qzqnoxpot"></path></g><path d="M383.09,172.47c-1.83,2-3.67,7,.33,6.95S386.23,169.05,383.09,172.47Z" style="fill: rgb(38, 50, 56); transform-origin: 383.498px 175.598px 0px;" id="elzymkydfgwmg" class="animable"></path><path d="M398.46,183.49c-2.44,6.18-3.56,9.92-7.8,12.09-6.37,3.25-13.2-2.25-12.65-9.06.5-6.12,4.41-15.19,11.39-15.62A9.16,9.16,0,0,1,398.46,183.49Z" style="fill: rgb(255, 181, 115); transform-origin: 388.556px 183.711px 0px;" id="elgkc7s2bc5v" class="animable"></path><path d="M399.41,171.59h-4.53l2.18,4.12c.74.11-.73,2.62-.09,2.63,0,0-3,5.46-1.12,9.15,6.72-.54,11.46-5.83,8.42-9.63C406.2,174.52,402.78,172,399.41,171.59Z" style="fill: rgb(38, 50, 56); transform-origin: 400.045px 179.54px 0px;" id="elnka7qqcb73" class="animable"></path><path d="M399.18,189.54a6.26,6.26,0,0,1-4.1,2.51c-2.18.32-3-1.72-2.19-3.64.74-1.74,2.78-4,4.87-3.43A2.87,2.87,0,0,1,399.18,189.54Z" style="fill: rgb(255, 181, 115); transform-origin: 396.202px 188.487px 0px;" id="elntlm5cjbrb" class="animable"></path><path d="M388.34,182c-.17.51-.58.83-.91.72s-.48-.62-.31-1.13.58-.84.91-.73S388.5,181.52,388.34,182Z" style="fill: rgb(38, 50, 56); transform-origin: 387.728px 181.79px 0px;" id="elwoifu2rsht8" class="animable"></path><path d="M382.54,180.08c-.17.52-.57.84-.91.73s-.47-.62-.3-1.14.57-.84.91-.72S382.71,179.57,382.54,180.08Z" style="fill: rgb(38, 50, 56); transform-origin: 381.935px 179.878px 0px;" id="el32el9z8cwdf" class="animable"></path><path d="M384.3,181a18.83,18.83,0,0,1-3.87,3.4,3.2,3.2,0,0,0,2.3,1.23Z" style="fill: rgb(237, 137, 62); transform-origin: 382.365px 183.315px 0px;" id="elnld5gz1ebmo" class="animable"></path><path d="M390.73,180.76a.32.32,0,0,1-.24-.21,2.61,2.61,0,0,0-1.6-1.66.31.31,0,0,1,.15-.61,3.16,3.16,0,0,1,2,2.07.31.31,0,0,1-.2.4A.29.29,0,0,1,390.73,180.76Z" style="fill: rgb(38, 50, 56); transform-origin: 389.854px 179.516px 0px;" id="el19i7d9kgluf" class="animable"></path><path d="M380.7,177.24a.38.38,0,0,1-.17-.08.33.33,0,0,1,0-.45,3.11,3.11,0,0,1,2.72-1,.31.31,0,0,1,.25.37.3.3,0,0,1-.37.25,2.45,2.45,0,0,0-2.14.79A.3.3,0,0,1,380.7,177.24Z" style="fill: rgb(38, 50, 56); transform-origin: 381.974px 176.463px 0px;" id="elj3x5q8tqm3d" class="animable"></path><path d="M382,186.81a24,24,0,0,1,1.17,3.25l.6-.07c2.74-.33,3.9-1.39,4.36-2.46a3.52,3.52,0,0,0,.23-1.67,3.07,3.07,0,0,0-.19-.94c-1.35,1-3.88,1.55-5.24,1.76C382.36,186.78,382,186.81,382,186.81Z" style="fill: rgb(38, 50, 56); transform-origin: 385.19px 187.49px 0px;" id="el89njml8crg2" class="animable"></path><path d="M382.93,186.68l.37.95c2.58-.32,4.35-.89,5.06-1.77a3.07,3.07,0,0,0-.19-.94C386.82,186,384.29,186.47,382.93,186.68Z" style="fill: rgb(255, 255, 255); transform-origin: 385.645px 186.275px 0px;" id="eltgfjlntai1b" class="animable"></path><path d="M383.77,190c2.74-.33,3.9-1.39,4.36-2.46a8.84,8.84,0,0,0-3,1A3.37,3.37,0,0,0,383.77,190Z" style="fill: rgb(222, 87, 83); transform-origin: 385.95px 188.77px 0px;" id="el9yoq8r5qz2r" class="animable"></path><path d="M403,173s-3.93-6.06-13.14-6.45-9.5,5.77-6.38,7.88l.27-.9a7.85,7.85,0,0,0,2.75,2.12v-1.22a15.54,15.54,0,0,0,4.43,2.87v-1.54s2.4,2,7.39,2.56S405.29,176.8,403,173Z" style="fill: rgb(38, 50, 56); transform-origin: 392.82px 172.471px 0px;" id="el9gjkfi0j09" class="animable"></path><g id="elqlkm19md6uk"><path d="M396.73,237.77c-.29,1.37-.56,2.72-.81,4s-.54,2.79-.77,4.13-.45,2.63-.65,3.88c-.23,1.4-.43,2.74-.61,4-7.78-.57-27.76-2.4-36.7-6.92q.1-1.6.24-3.15c.13-1.57.29-3.1.45-4.57,5.77-.51,20.51-1.8,23.83-2.2,4.15-.49,12.18-17,13.57-17.54C396,219.17,396.46,228.67,396.73,237.77Z" style="opacity: 0.2; transform-origin: 376.96px 236.588px 0px;" class="animable" id="elpq7abn3moem"></path></g><path d="M360.85,246l-6,3.18-.3-7.57s5.57-2.51,6.74.41Z" style="fill: rgb(255, 181, 115); transform-origin: 357.92px 244.893px 0px;" id="elpwu0t3nl3m" class="animable"></path><polygon points="348.06 248.79 350.01 242.2 354.51 241.64 354.81 249.22 348.06 248.79" style="fill: rgb(255, 181, 115); transform-origin: 351.435px 245.43px 0px;" id="elugg5jt7rhp" class="animable"></polygon><path d="M406,218.94a49.61,49.61,0,0,1-2.51,8.12A80.71,80.71,0,0,1,398,238.42a48.8,48.8,0,0,1-4.86,7,13.32,13.32,0,0,1-2.34,2.22c-1.87,1.28-6.24,1.61-11.1,1.5-2.77,0-5.69-.26-8.41-.5-6-.56-10.91-1.32-10.91-1.32l.19-6.15s5.12-.36,10.57-.88c2.9-.26,5.89-.57,8.24-.9a18,18,0,0,0,4.36-.91,6.6,6.6,0,0,0,1-.81,26.66,26.66,0,0,0,4.69-6.95c1-2,2-4.14,2.86-6.18,1.34-3.2,2.42-6.14,3-7.86.36-1,.56-1.59.56-1.59l9.1-4.86C406.69,211.72,406.84,215,406,218.94Z" style="fill: #029805; transform-origin: 383.438px 229.695px 0px;" id="elajv4xy71ds" class="animable"></path><g id="elkqy7n5fkfco"><path d="M379.69,249.13c-2.77,0-5.69-.26-8.41-.5l-.15-8.35c2.9-.26,5.89-.57,8.24-.9Z" style="fill: rgb(255, 255, 255); opacity: 0.2; transform-origin: 375.41px 244.255px 0px;" class="animable" id="elpm0ukf1oewi"></path></g><g id="el2ocqordf8x"><path d="M398,238.42a48.8,48.8,0,0,1-4.86,7l-8.35-7.75a26.66,26.66,0,0,0,4.69-6.95Z" style="fill: rgb(255, 255, 255); opacity: 0.2; transform-origin: 391.395px 238.07px 0px;" class="animable" id="el2yjzc0z40k6"></path></g><g id="elee967hnzwxq"><path d="M406,218.94a49.61,49.61,0,0,1-2.51,8.12l-11.18-2.53c1.34-3.2,2.42-6.14,3-7.86Z" style="fill: rgb(255, 255, 255); opacity: 0.2; transform-origin: 399.155px 221.865px 0px;" class="animable" id="eleixg3mr15fa"></path></g></g><defs>     <filter id="active" height="200%">         <feMorphology in="SourceAlpha" result="DILATED" operator="dilate" radius="2"></feMorphology>                <feFlood flood-color="#32DFEC" flood-opacity="1" result="PINK"></feFlood>        <feComposite in="PINK" in2="DILATED" operator="in" result="OUTLINE"></feComposite>        <feMerge>            <feMergeNode in="OUTLINE"></feMergeNode>            <feMergeNode in="SourceGraphic"></feMergeNode>        </feMerge>    </filter>    <filter id="hover" height="200%">        <feMorphology in="SourceAlpha" result="DILATED" operator="dilate" radius="2"></feMorphology>                <feFlood flood-color="#ff0000" flood-opacity="0.5" result="PINK"></feFlood>        <feComposite in="PINK" in2="DILATED" operator="in" result="OUTLINE"></feComposite>        <feMerge>            <feMergeNode in="OUTLINE"></feMergeNode>            <feMergeNode in="SourceGraphic"></feMergeNode>        </feMerge>            <feColorMatrix type="matrix" values="0   0   0   0   0                0   1   0   0   0                0   0   0   0   0                0   0   0   1   0 "></feColorMatrix>    </filter></defs></svg>